<?xml version="1.0" standalone="no"?>
<!DOCTYPE svg PUBLIC "-//W3C//DTD SVG 20010904//EN"
 "http://www.w3.org/TR/2001/REC-SVG-20010904/DTD/svg10.dtd">
<svg version="1.0" xmlns="http://www.w3.org/2000/svg"
 width="874.000000pt" height="118.000000pt" viewBox="0 0 874.000000 118.000000"
 preserveAspectRatio="xMidYMid meet">

<g transform="translate(0.000000,118.000000) scale(0.100000,-0.100000)"
fill="#000000" stroke="none">
<path d="M546 1170 c-56 -10 -92 -33 -121 -77 -11 -17 -42 -43 -70 -58 -70
-39 -193 -167 -233 -242 -57 -107 -72 -191 -72 -394 0 -222 -11 -209 180 -209
150 0 175 -7 146 -39 -20 -22 -15 -51 9 -51 8 0 24 -9 35 -20 26 -26 68 -25
97 2 21 20 32 21 135 19 93 -2 116 -6 136 -22 30 -23 75 -25 93 -3 7 9 23 20
36 25 27 10 30 35 7 61 -14 14 -14 18 -3 22 8 3 111 7 229 9 218 3 255 9 246
33 -4 11 14 14 92 14 53 0 108 3 121 7 23 6 23 9 17 72 -7 77 -44 161 -84 188
-19 13 -52 19 -116 23 l-90 5 -12 70 c-34 201 -157 362 -351 459 -40 20 -73
41 -73 47 0 5 -26 22 -57 36 -46 21 -75 27 -152 29 -53 2 -118 -1 -145 -6z
m284 -33 c24 -12 27 -15 10 -11 -44 10 -217 17 -255 10 -50 -10 -75 -37 -75
-85 0 -21 -3 -59 -6 -85 l-7 -46 -48 0 c-47 0 -49 1 -49 28 0 46 29 129 56
161 33 40 83 50 224 47 84 -2 125 -7 150 -19z m3 -28 c65 -16 87 -46 87 -118
0 -89 2 -88 -206 -95 -140 -4 -184 -3 -192 7 -12 15 0 183 14 197 30 30 197
35 297 9z m171 -77 c94 -51 95 -62 8 -62 l-70 0 -7 33 c-4 17 -9 40 -11 50 -7
24 2 22 80 -21z m-610 -19 c-10 -42 -12 -43 -55 -43 -21 0 -39 3 -39 8 0 8 80
62 93 62 4 0 4 -12 1 -27z m-14 -92 c0 -21 -5 -52 -11 -70 l-11 -31 -99 0
c-55 0 -99 4 -99 9 0 6 25 37 56 70 55 60 57 61 110 61 l54 0 0 -39z m610 -31
c0 -38 -4 -70 -8 -70 -12 0 -52 92 -52 118 0 18 6 22 30 22 l30 0 0 -70z m157
38 c16 -18 42 -50 58 -70 l27 -38 -111 0 -111 0 0 70 0 70 53 0 c47 0 57 -4
84 -32z m-705 -88 c-3 -43 -8 -60 -18 -60 -20 0 -34 33 -34 79 0 38 2 41 28
41 27 0 27 0 24 -60z m63 22 c8 -49 -9 -123 -32 -140 -22 -16 -73 -8 -90 15
-7 9 -13 33 -12 52 0 29 2 32 9 16 14 -35 36 -48 59 -35 17 9 21 20 21 64 0
29 3 56 7 59 16 17 32 4 38 -31z m385 2 c6 -14 10 -56 10 -93 l0 -68 -37 -7
c-21 -3 -50 -6 -64 -6 -15 0 -32 -7 -39 -15 -8 -10 -31 -15 -69 -15 -57 1
-209 24 -219 34 -3 4 5 17 17 30 18 19 24 40 28 91 l6 66 81 -3 81 -3 3 -43
c2 -24 -2 -49 -8 -57 -8 -9 -6 -22 7 -49 23 -49 54 -49 82 0 l22 37 -21 22
c-12 13 -20 35 -20 58 0 39 -6 37 108 45 16 1 25 -6 32 -24z m70 -76 c0 -20
-4 -40 -10 -43 -6 -4 -10 9 -10 33 0 22 -2 55 -5 73 l-5 34 14 -30 c9 -16 15
-47 16 -67z m-732 -50 l3 -68 -71 0 c-38 0 -70 4 -70 9 0 5 12 37 27 71 l26
61 41 -3 41 -3 3 -67z m128 45 c1 -12 4 -28 7 -37 4 -9 4 -30 0 -46 -5 -29 -7
-30 -64 -30 l-59 0 0 70 0 71 58 -3 c50 -3 57 -5 58 -25z m794 -43 l0 -70 -96
0 -97 0 7 48 c6 43 13 83 15 90 1 1 39 2 86 2 l85 0 0 -70z m106 39 c8 -17 22
-49 29 -70 l14 -39 -69 0 -70 0 0 70 0 70 40 0 c34 0 42 -4 56 -31z m-491 -9
c8 -13 -32 -22 -57 -14 -20 6 -20 7 -4 19 17 13 52 10 61 -5z m-108 -118 l122
-5 -2 -53 -2 -54 -100 0 c-86 0 -299 30 -313 45 -2 2 1 18 7 36 6 18 11 44 11
59 l0 28 78 -25 c58 -19 106 -27 199 -31z m278 -66 c-20 -18 -20 -18 -23 32
-2 39 1 55 15 69 17 18 18 16 23 -32 5 -42 2 -53 -15 -69z m-42 65 c4 -16 4
-51 1 -78 -4 -31 0 -63 10 -92 21 -57 21 -107 0 -115 -9 -3 -31 -6 -50 -6
l-34 0 0 51 c0 28 -5 60 -12 72 -6 12 -12 59 -13 104 -1 90 -2 88 66 92 22 1
28 -4 32 -28z m-533 -5 c0 -3 -4 -16 -10 -30 -9 -25 -10 -25 -51 -11 -108 38
-173 1 -118 -69 l20 -26 -71 0 -72 0 7 57 c11 89 0 83 156 83 76 0 139 -2 139
-4z m630 -53 c0 -67 -11 -63 -20 7 -5 38 -3 50 7 50 9 0 13 -16 13 -57z m324
20 c3 -21 6 -48 6 -60 0 -23 13 -21 -232 -39 l-78 -6 0 71 0 71 149 0 148 0 7
-37z m-369 -149 c20 -78 19 -130 -6 -184 -25 -55 -62 -95 -114 -123 -59 -32
-219 -32 -290 1 -63 29 -93 57 -116 107 -28 61 -24 107 19 197 l37 79 55 -8
c30 -4 99 -8 152 -8 l98 0 10 -29 c5 -16 10 -53 10 -81 0 -65 15 -80 71 -72
23 3 46 10 51 15 13 13 12 90 -2 126 -5 15 -10 37 -10 49 1 19 2 20 10 6 5 -9
16 -43 25 -75z m323 16 c-32 -38 -35 -40 -96 -40 -63 0 -63 0 -48 21 27 40 68
59 124 59 l53 0 -33 -40z m81 0 c-25 -26 -47 -40 -64 -40 -28 0 -31 7 -12 30
21 28 61 50 88 50 l26 0 -38 -40z m110 3 c0 -30 -7 -43 -30 -62 -30 -23 -32
-23 -66 -7 -33 16 -34 18 -20 39 18 29 75 67 98 67 15 0 19 -7 18 -37z m79 11
c26 -17 28 -31 6 -55 -14 -15 -18 -15 -45 -2 -24 12 -29 21 -29 49 0 32 2 35
23 29 12 -4 32 -13 45 -21z m-1310 -66 l3 -68 -86 0 -85 0 0 70 0 71 83 -3 82
-3 3 -67z m902 66 c0 -3 -9 -17 -20 -31 -11 -14 -25 -43 -30 -64 -9 -34 -14
-39 -40 -39 l-30 0 21 21 c21 21 20 38 -8 92 l-14 27 61 0 c33 0 60 -3 60 -6z
m-812 -50 c1 -1 0 -20 -4 -43 -6 -39 -8 -41 -40 -41 l-34 0 0 60 0 60 38 -17
c20 -10 38 -18 40 -19z m1292 -85 c0 -9 -11 -21 -24 -27 -22 -10 -24 -8 -36
34 -11 40 -11 47 6 65 l19 21 17 -39 c10 -21 18 -45 18 -54z m-115 61 c4 -6
-7 -10 -25 -10 -18 0 -29 4 -25 10 3 6 15 10 25 10 10 0 22 -4 25 -10z m-349
-50 c-9 -46 -12 -50 -38 -50 -32 0 -35 16 -17 69 9 24 17 31 38 31 l28 0 -11
-50z m161 36 c-3 -8 -9 -31 -13 -50 l-6 -36 -69 0 c-75 0 -76 0 -58 63 l10 37
71 0 c57 0 69 -3 65 -14z m89 -42 c-3 -9 -6 -25 -6 -36 0 -18 -5 -20 -41 -15
-22 3 -43 7 -45 10 -3 2 0 25 7 50 l11 46 40 -20 c27 -14 38 -25 34 -35z m134
10 c19 -48 14 -54 -45 -54 l-55 0 0 40 0 40 45 0 c40 0 47 -3 55 -26z m-1214
-61 c6 -31 18 -67 30 -97 7 -18 2 -19 -125 -13 -79 3 -138 10 -147 18 -9 7
-14 31 -14 65 l0 54 125 0 125 0 6 -27z m746 -43 c-3 -66 -5 -70 -28 -70 -23
0 -24 3 -24 70 0 70 0 70 28 70 l27 0 -3 -70z m558 14 c0 -26 -46 -40 -54 -17
-11 27 -6 40 17 50 25 12 37 1 37 -33z m-417 19 c2 -5 2 -30 -1 -56 l-4 -48
-62 3 -61 3 -3 39 c-5 61 0 66 67 66 33 0 62 -3 64 -7z m81 -10 c-1 -7 -2 -31
-2 -53 -2 -37 -4 -40 -32 -40 -30 0 -30 0 -30 56 l0 55 33 -3 c18 -2 32 -8 31
-15z m94 -32 c4 -38 -9 -51 -50 -51 -27 0 -28 2 -28 48 l0 49 38 -6 c33 -6 37
-10 40 -40z m-388 -11 c0 -43 -3 -50 -20 -50 -11 0 -20 3 -20 7 0 9 34 93 38
93 1 0 2 -22 2 -50z m500 25 c0 -27 -8 -29 -59 -19 -21 5 -31 12 -31 25 0 16
8 19 45 19 41 0 45 -2 45 -25z m60 0 c0 -18 -5 -25 -20 -25 -15 0 -20 7 -20
25 0 18 5 25 20 25 15 0 20 -7 20 -25z m-1046 -159 c18 -6 18 -7 1 -26 -23
-25 -46 -25 -73 0 -12 11 -28 20 -37 20 -17 0 -20 21 -4 37 8 8 22 6 52 -7 23
-9 50 -20 61 -24z m426 13 c0 -5 -8 -13 -17 -16 -10 -4 -30 -16 -45 -27 -23
-16 -32 -18 -53 -8 -14 6 -25 15 -25 19 1 5 24 19 53 33 50 25 87 24 87 -1z"/>
<path d="M582 807 c-9 -10 -4 -13 23 -13 27 0 32 3 23 13 -6 7 -16 13 -23 13
-7 0 -17 -6 -23 -13z"/>
<path d="M804 804 c-18 -15 -18 -15 4 -9 13 4 29 1 37 -5 18 -15 20 1 3 18
-16 16 -20 15 -44 -4z"/>
<path d="M7520 880 c-20 -20 -26 -56 -12 -76 25 -38 103 -40 122 -4 15 29 12
65 -8 83 -25 23 -78 21 -102 -3z"/>
<path d="M6990 585 l0 -285 55 0 55 0 0 116 c0 84 4 125 15 149 28 57 94 72
142 31 28 -24 28 -25 31 -160 l4 -136 55 0 54 0 -3 159 c-3 174 -7 187 -72
235 -39 30 -137 29 -188 -1 l-38 -22 0 99 0 100 -55 0 -55 0 0 -285z"/>
<path d="M5640 565 l0 -265 60 0 60 0 0 100 0 100 125 0 125 0 0 45 0 44 -122
3 -123 3 -3 73 -3 72 141 0 140 0 0 45 0 45 -200 0 -200 0 0 -265z"/>
<path d="M6181 705 c-79 -22 -84 -29 -60 -76 l20 -39 32 17 c18 9 55 17 86 17
44 0 57 -4 72 -23 11 -13 19 -32 19 -42 0 -17 -8 -19 -82 -19 -100 0 -144 -18
-173 -72 -18 -34 -19 -40 -5 -79 23 -64 57 -84 145 -84 64 0 77 3 99 24 l26
24 0 -26 c0 -26 2 -27 55 -27 l55 0 0 143 c0 173 -14 213 -81 248 -55 27 -139
33 -208 14z m169 -259 c0 -44 -29 -66 -86 -66 -47 0 -67 17 -62 52 4 30 42 48
101 48 47 0 47 0 47 -34z"/>
<path d="M6667 709 c-74 -17 -117 -65 -117 -130 0 -22 10 -41 33 -64 32 -32
36 -34 180 -61 34 -7 45 -30 24 -51 -20 -20 -113 -19 -163 2 -20 8 -38 15 -40
15 -2 0 -13 -18 -24 -40 l-21 -41 38 -16 c58 -24 184 -29 237 -9 66 25 91 58
91 118 0 72 -24 87 -189 124 -50 11 -69 39 -42 60 24 17 99 18 148 0 l36 -13
18 39 c21 46 17 51 -59 68 -56 12 -97 12 -150 -1z"/>
<path d="M7875 711 c-96 -25 -165 -109 -165 -200 0 -119 97 -210 223 -211 157
0 257 125 217 272 -29 102 -162 169 -275 139z m116 -101 c27 -15 49 -63 49
-109 0 -31 -7 -49 -29 -73 -26 -29 -35 -33 -76 -32 -57 1 -93 32 -102 86 -12
79 30 138 99 138 22 0 48 -5 59 -10z"/>
<path d="M8426 705 c-21 -7 -43 -18 -49 -24 -17 -17 -27 -13 -27 9 0 18 -7 20
-55 20 l-55 0 0 -205 0 -205 60 0 60 0 0 119 c0 66 4 131 10 145 13 35 64 59
106 51 56 -10 64 -32 64 -182 l0 -133 61 0 61 0 -4 153 c-4 178 -14 207 -88
245 -50 25 -88 27 -144 7z"/>
<path d="M7510 505 l0 -205 60 0 60 0 0 205 0 205 -60 0 -60 0 0 -205z"/>
</g>
</svg>
